<svg width="1014" height="1014" viewBox="0 0 1014 1014" fill="none" xmlns="http://www.w3.org/2000/svg">
<circle cx="507" cy="507" r="500" fill="#8C5522" fill-opacity="0.83"/>
<circle cx="507" cy="507" r="500" fill="#E6C8C8" fill-opacity="0.2"/>
<circle cx="507" cy="507" r="500" stroke="black" stroke-opacity="0.5" stroke-width="14" stroke-miterlimit="1.74345" stroke-linecap="round"/>
<path d="M508.396 601.085C511.944 593.203 519.313 587.713 527.881 586.569L534.727 585.654C536.019 585.481 537.323 585.41 538.627 585.441L553.225 585.785C557.308 585.882 561.305 586.977 564.866 588.975L573.913 594.05L602.004 613.412C609.136 618.328 611.301 627.894 606.981 635.402V635.402C606.434 636.351 605.796 637.244 605.074 638.068L594.975 649.592C593.69 651.059 592.238 652.37 590.648 653.498L577.64 662.737L573.329 666.536L570.179 669.677L567.873 672.622C567.488 673.115 567.295 673.73 567.332 674.354V674.354C567.401 675.532 568.263 676.511 569.423 676.727L572.374 677.278L575 678.011C576.801 678.514 578.539 679.217 580.183 680.108L582.757 681.502L587.804 684.236L592.899 686.382C594.377 687.005 595.79 687.772 597.117 688.673L597.792 689.132C599.243 690.116 600.547 691.302 601.666 692.652V692.652C603.041 694.313 604.117 696.2 604.845 698.229L605.447 699.904C605.705 700.622 605.858 701.373 605.903 702.134L605.978 703.419C605.998 703.766 605.94 704.114 605.809 704.435L605.715 704.665C605.575 705.006 605.323 705.29 605 705.469V705.469C604.598 705.691 604.121 705.732 603.687 705.583L601.393 704.793L597.22 703.239L595.028 702.423C593.714 701.933 592.472 701.268 591.336 700.444L591.305 700.421C590.439 699.793 589.508 699.258 588.53 698.826L585.482 697.481C585.305 697.403 585.113 697.368 584.92 697.378V697.378C584.242 697.415 583.723 697.996 583.762 698.674L583.807 699.434C583.822 699.685 583.884 699.93 583.99 700.157L584.599 701.465C584.806 701.908 585.046 702.334 585.317 702.739L586.057 703.844C586.568 704.608 587.17 705.307 587.85 705.926V705.926C588.398 706.424 588.896 706.975 589.337 707.571L589.941 708.388L591.431 710.186C591.691 710.5 591.899 710.854 592.049 711.233L592.207 711.637C592.403 712.136 592.435 712.684 592.298 713.202V713.202C592.128 713.849 591.706 714.401 591.128 714.737L591.071 714.771C590.96 714.835 590.844 714.892 590.724 714.94L590.544 715.012C589.66 715.368 588.698 715.482 587.756 715.343L587.382 715.288C586.635 715.178 585.911 714.944 585.242 714.595L583.246 713.556L579.617 711.327L577.187 709.678L574.109 706.908L573.972 706.813C572.448 705.76 570.798 704.874 569.079 704.182V704.182V704.182C567.692 703.839 566.611 705.385 567.41 706.57L569.258 709.313C569.346 709.444 569.424 709.583 569.489 709.727L570.967 712.988L571.813 715.14C572.156 716.013 572.247 716.965 572.077 717.887L572.046 718.057C571.946 718.598 571.74 719.113 571.44 719.573L571.369 719.683C570.691 720.724 569.556 721.379 568.316 721.447V721.447C567.703 721.48 567.091 721.368 566.529 721.12L565.957 720.868C565.316 720.585 564.724 720.2 564.206 719.729L562.525 718.2L558.251 714.922L550.995 710.515V710.515C548.382 709.288 545.876 712.39 547.626 714.687L547.75 714.85L547.817 714.941C548.61 716.012 549.188 717.226 549.52 718.516L549.577 718.737C549.706 719.238 549.787 719.75 549.817 720.267L549.86 721C549.916 721.95 549.716 722.896 549.281 723.742V723.742C548.696 724.88 547.721 725.768 546.535 726.245L546.264 726.354C545.404 726.7 544.475 726.845 543.55 726.779L541.769 726.65C540.777 726.579 539.801 726.353 538.877 725.982V725.982C537.405 725.391 536.102 724.444 535.085 723.226L518.505 703.382L513.127 695.196C512.445 694.157 511.841 693.069 511.321 691.941L507.662 684.008C507.061 682.705 506.573 681.353 506.204 679.966L503.503 669.816C503.181 668.608 502.951 667.377 502.814 666.134L501.78 656.785L502.351 638.344L504.931 611.979C505.195 609.273 505.9 606.628 507.016 604.149L508.396 601.085Z" fill="#029102"/>
<path d="M304.818 539.279C304.979 538.977 305.283 538.778 305.625 538.751L336.337 536.389C336.388 536.385 336.439 536.385 336.49 536.389L367.506 538.774C367.667 538.787 367.823 538.838 367.96 538.923L387.036 550.846L440.124 591.257C440.545 591.577 440.644 592.168 440.351 592.607L428.07 611.028C428.034 611.083 427.992 611.134 427.945 611.18L408.813 630.313C408.758 630.368 408.698 630.416 408.632 630.456L386.628 644.055L380.38 648.876L375.786 652.894L371.74 657.413C371.576 657.596 371.485 657.833 371.485 658.08L371.485 660.944C371.485 661.406 371.802 661.808 372.252 661.916L378.197 663.339L385.323 665.715C385.393 665.738 385.461 665.769 385.524 665.808L392.163 669.822L398.897 673.894L408.642 678.564C408.701 678.592 408.757 678.626 408.81 678.665L415.045 683.342C415.121 683.398 415.188 683.466 415.245 683.542L419.873 689.713C419.944 689.807 419.997 689.913 420.031 690.026L422.349 697.75C422.377 697.844 422.391 697.94 422.391 698.038L422.391 701.678C422.391 701.83 422.356 701.98 422.29 702.116L421.741 703.242C421.641 703.446 421.476 703.61 421.27 703.707L420.375 704.132C420.123 704.251 419.833 704.26 419.575 704.157L415.963 702.712L410.338 700.302L404.838 697.944C404.755 697.909 404.678 697.862 404.607 697.806L400.778 694.743C400.723 694.699 400.664 694.661 400.601 694.629L394.479 691.568C394.34 691.499 394.187 691.463 394.031 691.463L393.163 691.463C392.61 691.463 392.163 691.91 392.163 692.463L392.163 694.482C392.163 694.611 392.187 694.738 392.236 694.857L393.435 697.819C393.454 697.867 393.477 697.913 393.504 697.958L395.811 701.803C395.853 701.873 395.904 701.938 395.962 701.996L398.215 704.249C398.262 704.296 398.303 704.347 398.34 704.402L399.892 706.73L402.205 709.814C402.27 709.9 402.32 709.996 402.354 710.098L403.001 712.038C403.069 712.243 403.069 712.465 403.001 712.671L402.434 714.372C402.35 714.624 402.169 714.832 401.932 714.95L400.759 715.537C400.717 715.558 400.673 715.576 400.628 715.591L398.537 716.288C398.372 716.343 398.195 716.354 398.025 716.32L394.431 715.601C394.323 715.58 394.219 715.54 394.124 715.485L390.25 713.228L385.429 709.944L382.215 707.533L378.197 703.557L375.071 701.172C375.012 701.128 374.949 701.09 374.882 701.059L371.485 699.498L368.632 698.639C367.755 698.376 367.014 699.331 367.488 700.114L371.441 706.657C371.47 706.705 371.496 706.756 371.516 706.809L373.376 711.551L374.891 716.096C374.951 716.276 374.958 716.47 374.912 716.655L374.228 719.39C374.196 719.519 374.138 719.641 374.058 719.748L372.069 722.4C371.88 722.652 371.584 722.8 371.269 722.8L367.987 722.8C367.832 722.8 367.679 722.764 367.54 722.694L364.682 721.265C364.586 721.217 364.498 721.154 364.422 721.078L361.323 717.979L355.698 713.228L346.056 706.73L335.995 701.403C335.071 700.914 334.111 701.992 334.703 702.854L341.235 712.354L342.732 714.6C342.805 714.709 342.855 714.831 342.881 714.959L343.626 718.685C343.639 718.75 343.645 718.816 343.645 718.881L343.645 722.523C343.645 722.704 343.596 722.882 343.503 723.037L341.425 726.5C341.302 726.705 341.11 726.859 340.884 726.935L336.629 728.353C336.487 728.4 336.337 728.415 336.189 728.397L330.139 727.64C330.037 727.628 329.938 727.599 329.845 727.557L325.321 725.48C325.171 725.412 325.041 725.307 324.941 725.175L301.862 694.677L293.865 681.082C293.84 681.039 293.818 680.993 293.799 680.946L287.431 665.028C287.41 664.974 287.393 664.918 287.381 664.86L283.397 645.737C283.386 645.687 283.38 645.636 283.377 645.585L282.581 630.467C282.579 630.419 282.58 630.371 282.584 630.323L284.854 605.486L291.39 564.67C291.408 564.562 291.443 564.457 291.494 564.359L304.818 539.279Z" fill="#029102"/>
<path d="M712.138 550.52C707.251 616.713 609.649 663.459 494.139 654.93C378.628 646.402 288.95 585.829 293.837 519.636C298.724 453.443 396.326 406.697 511.837 415.226C627.347 423.754 717.025 484.327 712.138 550.52Z" fill="#00B500"/>
<path d="M779.86 601.511C776.028 653.408 728.809 692.223 674.393 688.205C619.977 684.187 578.97 638.859 582.801 586.961C586.633 535.063 633.852 496.249 688.269 500.267C742.685 504.284 783.692 549.613 779.86 601.511Z" fill="#00B500"/>
<path d="M88.3283 277.601C111.776 254.768 146.927 248.872 176.542 262.804L184.505 266.55C199.994 273.836 213.083 285.389 222.238 299.852L255.563 352.499L291.446 411.957C294.569 417.132 299.003 421.392 304.299 424.306L343.193 445.709C353.317 451.28 352.336 466.136 341.567 470.327V470.327C340.324 470.811 339.159 471.475 338.109 472.297L321.685 485.163C314.472 490.812 309.258 498.623 306.805 507.45L304.006 517.525C303.344 519.908 303.471 522.442 304.368 524.747V524.747C307.431 532.616 301.217 540.982 292.798 540.323L238.893 536.103L195.858 528.331C182.762 525.965 170.355 520.726 159.528 512.989L137.067 496.939C128 490.461 120.216 482.355 114.109 473.034L96.6992 446.458C93.2631 441.214 90.3846 435.624 88.1105 429.781L72.2805 389.108C68.9755 380.616 66.9792 371.671 66.3601 362.58L64.7676 339.196C63.2016 316.202 71.8163 293.681 88.3283 277.601V277.601Z" fill="#029102"/>
<path d="M798.757 667.801L842.879 743.557L734.158 715.569L698.803 654.501L798.757 667.801Z" fill="#CDAF43"/>
<path d="M749.425 612.717L764.087 609.503H778.352L788.798 617.538L800.851 630.394L806.475 645.661L809.032 654.5L825.76 656.91L850.669 663.339L869.954 667.356L902.095 674.588L922.986 685.837L933.432 693.873L940 708.336L936.646 723.603L926.2 733.245L910.13 743.691L891.649 747.709L871.561 750.119H845.848L822.546 743.691L800.851 733.245L783.173 723.603L755.05 705.122L738.176 693.873L716.481 674.588L734.158 715.568L719.695 712.354L706.838 705.122L699.607 697.087L693.982 685.837V667.356L697.196 650.482L703.624 640.84L712.463 633.608L722.909 630.394L734.158 633.608L741.39 620.752L749.425 612.717Z" fill="#F0CD52"/>
</svg>
