<svg width="512" height="512" viewBox="0 0 512 512" fill="none" xmlns="http://www.w3.org/2000/svg">
<path d="M345.204 356.164C340.192 354.404 335.932 352.528 332.18 350.616C332.052 351.84 331.972 353.08 331.8 354.292C334.556 334.492 331.632 313.088 325.02 292.132C323.32 286.072 321.408 280.704 319.364 276.404L319.356 276.412C309.148 251.204 294.18 227.516 278.14 209.028L296.84 194.04C297.004 193.904 297.168 193.772 297.332 193.636C315.18 179.044 322.784 155.344 316.788 133.084C309.332 105.416 290.928 76.32 276.964 57.508C238.896 6.21999 154.748 9.50398 112.72 57.508C97.288 75.132 80.352 105.416 72.896 133.084C66.892 155.364 74.524 179.06 92.384 193.664C97.024 197.46 102.088 201.568 107.364 205.816C107.324 205.784 107.288 205.752 107.248 205.724C68.668 248.32 35 322.16 56.248 375.664C56.256 375.7 56.272 375.772 56.292 375.872C64.996 419.556 103.836 450.732 148.38 450.732H236.704C269.556 450.732 299.024 433.6 315.992 406.936C370.696 427.852 443.744 430.392 447.784 395.288C452.492 354.436 379.084 368.052 345.204 356.164V356.164Z" fill="#1D6F00"/>
<path d="M131.364 449.168C114.164 446.028 98.456 438.172 85.748 426.908L81.816 426.744C80.716 426.7 79.628 426.972 78.68 427.528L45.292 447.092C40.288 450.024 42.304 457.82 48.104 457.768C57.144 457.688 65.352 459.652 67.768 466.368C73.884 483.352 82.504 472.796 103.576 468.924C112.792 467.228 120.676 470.08 126.636 473.828C130.88 476.496 136.236 472.68 135.22 467.772L131.364 449.168Z" fill="#646238"/>
<path d="M340.436 447.092L307.048 427.528C306.1 426.972 305.008 426.7 303.912 426.744L299.016 426.948C286.536 438.048 271.188 445.756 254.4 448.988L250.512 467.772C249.496 472.684 254.848 476.496 259.096 473.828C265.056 470.08 272.94 467.232 282.156 468.924C303.228 472.8 311.848 483.352 317.964 466.368C320.38 459.652 328.588 457.688 337.628 457.768C343.424 457.816 345.44 450.024 340.436 447.092V447.092Z" fill="#646238"/>
<path d="M283.628 300.544L283.624 300.552C274.908 275.032 261.396 251.268 247.46 234.648C247.236 234.38 247.008 234.056 246.78 233.776C244.912 235.2 243.068 236.604 241.224 237.992V278.104C241.224 292.136 218.052 305.208 202.836 312.28C194.996 315.924 185.04 315.648 177.628 311.532C163.812 303.86 143.224 290.22 143.224 277.064V234.024C141.62 232.8 140.004 231.552 138.388 230.308C137.272 231.848 136.16 233.316 135.048 234.64C105.496 269.884 77.784 337.264 93.904 385.376C93.912 385.408 93.92 385.468 93.936 385.552C100.212 422.892 128.216 449.54 160.336 449.54H224.02C254.704 449.54 281.364 425.032 289.528 389.968C289.548 389.876 289.572 389.788 289.592 389.704C291.276 382.86 292.22 375.14 292.588 367.108C294.576 350.184 292.468 331.888 287.7 313.976C286.48 308.808 285.1 304.22 283.628 300.544V300.544Z" fill="#FFD7E5"/>
<path d="M104.012 344.148L81.732 382.216C77.54 391.4 84.04 395.252 89.868 393.268C98.484 390.332 106.764 390.664 111.872 399.26C124.456 420.436 126.56 403.24 140.048 392.148C145.424 387.728 149.116 389.432 153.396 393.296C157.488 396.988 165.872 395.892 161.18 384.012L141.88 344.856C140.58 341.964 138.476 340.032 136.756 340.176L106.292 342.716C105.364 342.792 104.572 343.288 104.012 344.148V344.148Z" fill="#646238"/>
<path d="M279.38 344.148L301.66 382.216C305.852 391.4 299.352 395.252 293.524 393.268C284.908 390.332 276.628 390.664 271.52 399.26C258.936 420.436 256.832 403.24 243.344 392.148C237.968 387.728 234.276 389.432 229.996 393.296C225.904 396.988 217.52 395.892 222.212 384.012L241.512 344.856C242.812 341.964 244.916 340.032 246.636 340.176L277.1 342.716C278.028 342.792 278.82 343.288 279.38 344.148V344.148Z" fill="#646238"/>
<path d="M217.908 160.66C214.276 152.44 203.964 146.508 191.792 146.508C179.62 146.508 169.308 152.44 165.676 160.66C165.52 161.016 143.224 168.436 143.224 177.292V277.072C143.224 290.228 163.812 303.868 177.628 311.54C185.04 315.656 194.996 315.932 202.836 312.288C218.052 305.216 241.224 292.144 241.224 278.112V177.292C241.224 168.436 218.064 161.016 217.908 160.66V160.66Z" fill="white"/>
<path d="M217.684 163.152C214.052 154.932 203.74 149 191.568 149C179.396 149 169.084 154.932 165.452 163.152C165.296 163.508 143 170.928 143 179.784V279.564C143 292.72 163.588 306.36 177.404 314.032C184.816 318.148 194.772 318.424 202.612 314.78C217.828 307.708 241 294.636 241 280.604V179.784C241 170.928 217.84 163.508 217.684 163.152V163.152Z" fill="#646238"/>
<path d="M446.508 375.516C435.64 362.304 410.628 360.312 386.436 358.384C371.916 357.228 356.904 356.032 346.524 352.388C342.976 351.144 339.68 349.736 336.456 348.204C337.836 330.64 335.296 311.428 328.868 291.052C327.076 284.652 325.092 279.148 322.976 274.688C322.96 274.656 322.944 274.62 322.928 274.592C313.488 251.364 299.628 228.544 283.884 209.688C284.732 209.008 285.624 208.296 286.456 207.624C288.176 206.236 288.444 203.72 287.056 202C285.672 200.284 283.16 200.008 281.432 201.4C277.82 204.316 274.08 207.312 270.276 210.344C268.548 211.72 268.264 214.236 269.64 215.964C270.428 216.956 271.596 217.472 272.772 217.472C273.644 217.472 274.524 217.188 275.26 216.6C276.076 215.952 276.84 215.332 277.648 214.684C292.976 233.008 306.472 255.264 315.64 277.912C315.712 278.088 315.792 278.256 315.888 278.416C317.756 282.416 319.532 287.396 321.196 293.332C328.12 315.284 330.352 335.608 327.8 354.072C327.272 363.712 325.924 372.304 323.696 379.972C312.844 419.28 277.068 446.728 236.696 446.728H148.38C105.568 446.728 68.484 416.596 60.152 374.792C60.104 374.584 60.044 374.38 59.964 374.184C39.056 321.54 73.256 250.972 107.728 211.248C118.292 219.732 129.292 228.408 139.896 236.52V277.068C139.896 291.712 159.724 305.796 176.356 315.032C180.9 317.556 186.244 318.832 191.612 318.828C196.292 318.828 200.992 317.86 205.192 315.912C223.76 307.284 245.896 293.72 245.896 278.108V177.292C245.896 168.232 232.9 162 221.58 157.584C221.556 157.576 221.532 157.568 221.508 157.556C216.64 148.492 205.216 142.508 192.46 142.508C179.7 142.508 168.264 148.504 163.396 157.584C163.384 157.588 163.372 157.592 163.36 157.6C152.436 162.024 139.892 168.264 139.892 177.292V226.412C123.44 213.708 106.952 200.42 94.912 190.572C78.304 176.988 71.172 154.832 76.756 134.128C83.508 109.06 99.532 78.64 115.724 60.148C136.536 36.392 168.96 23.016 202.36 24.36C231.852 25.548 257.872 38.504 273.756 59.9C285 75.048 305.036 104.832 312.928 134.132C318.512 154.836 311.396 176.98 294.824 190.536L294.308 190.956C292.6 192.36 292.356 194.88 293.756 196.588C295.152 198.292 297.672 198.544 299.384 197.14L299.868 196.74C318.896 181.184 327.052 155.792 320.652 132.052C312.412 101.48 291.756 70.736 280.176 55.136C262.848 31.788 234.6 17.66 202.684 16.372C166.792 14.908 132.092 29.32 109.716 54.88C92.532 74.5 76.184 105.512 69.036 132.048C62.636 155.792 70.808 181.196 89.856 196.764C93.608 199.832 97.516 203.008 101.504 206.232C65.764 247.636 30.568 321.2 52.4 376.808C56.056 394.988 64.836 411.1 76.992 423.936C76.884 423.996 76.76 424.012 76.652 424.076L43.264 443.64C39.396 445.908 37.608 450.348 38.808 454.696C39.98 458.936 43.688 461.768 48.048 461.768H48.136C54.48 461.724 62.192 462.7 64.004 467.724C67.324 476.952 72 479.684 77.348 479.684C81.136 479.684 85.26 478.316 89.48 476.916C93.708 475.512 98.5 473.924 104.296 472.856C111.124 471.604 117.916 473.072 124.504 477.212C127.832 479.3 131.9 479.2 135.132 476.956C138.356 474.72 139.924 470.792 139.132 466.956L136.432 453.916C140.364 454.396 144.336 454.728 148.38 454.728H236.704C240.968 454.728 245.164 454.364 249.312 453.82L246.592 466.952C245.8 470.784 247.364 474.712 250.588 476.952C253.824 479.2 257.9 479.296 261.22 477.208C267.808 473.06 274.608 471.596 281.428 472.852C287.224 473.92 292.012 475.508 296.24 476.908C300.464 478.308 304.584 479.676 308.372 479.676C313.72 479.676 318.4 476.944 321.724 467.716C323.524 462.696 331.304 461.7 337.588 461.764C341.912 461.744 345.736 458.964 346.912 454.688C348.116 450.344 346.324 445.9 342.46 443.636L309.068 424.072C308.736 423.876 308.364 423.792 308.016 423.64C311.488 419.944 314.684 415.968 317.58 411.744C341.08 420.324 369.804 426.192 394.716 426.192C411.64 426.192 426.784 423.5 437.26 417.136C445.844 411.928 450.724 404.724 451.76 395.736C452.688 387.684 450.924 380.88 446.508 375.516V375.516ZM147.9 177.292C147.9 176.492 148.792 172.132 166.372 165.012C168.284 164.24 169.332 163.812 170.008 162.276C173.072 155.348 182.304 150.508 192.464 150.508C202.624 150.508 211.86 155.348 214.92 162.276C215.612 163.84 216.7 164.264 218.672 165.032C236.972 172.172 237.9 176.492 237.9 177.288V278.104C237.9 286.864 224.752 298 201.824 308.656C195.152 311.756 186.476 311.508 180.24 308.04C159.684 296.624 147.896 285.336 147.896 277.068V177.292H147.9ZM131.3 468.58C131.516 469.608 130.864 470.184 130.572 470.388C130.232 470.62 129.552 470.936 128.764 470.44C120.428 465.192 111.696 463.364 102.852 464.988C96.508 466.156 91.216 467.908 86.96 469.32C76.456 472.804 74.56 473.44 71.528 465.012C68.84 457.548 61.136 453.764 48.624 453.764C48.432 453.764 48.232 453.74 48.044 453.764C47.06 453.764 46.668 453.112 46.516 452.56C46.408 452.156 46.26 451.152 47.308 450.54L80.696 430.976C80.984 430.804 81.356 430.748 81.644 430.736L84.224 430.844C96.58 441.476 111.572 449.028 127.964 452.504L131.3 468.58ZM338.416 450.544C339.464 451.156 339.32 452.16 339.204 452.564C339.052 453.116 338.664 453.768 337.68 453.768C337.436 453.764 337.288 453.768 337.1 453.768C324.584 453.768 316.876 457.552 314.196 465.016C311.164 473.432 309.276 472.812 298.76 469.324C294.508 467.912 289.216 466.156 282.872 464.992C280.788 464.608 278.712 464.416 276.644 464.416C269.932 464.416 263.336 466.432 256.96 470.44C256.172 470.94 255.492 470.624 255.148 470.384C254.86 470.184 254.212 469.608 254.424 468.58L257.788 452.324C273.628 448.776 288.208 441.344 300.352 430.892L304.068 430.74C304.412 430.756 304.732 430.808 305.016 430.98L338.416 450.544ZM443.812 394.832C443.06 401.328 439.56 406.392 433.108 410.308C412.78 422.652 364.664 420.156 321.912 404.868C321.94 404.82 321.964 404.768 321.988 404.72C322.188 404.368 322.364 403.996 322.56 403.64C323.552 401.848 324.488 400.032 325.364 398.188C325.708 397.468 326.028 396.736 326.352 396.008C327.076 394.384 327.756 392.744 328.392 391.084C328.66 390.384 328.936 389.692 329.188 388.984C330.028 386.64 330.808 384.272 331.476 381.856C332.032 379.944 332.536 377.952 332.992 375.896C333.156 375.164 333.28 374.388 333.428 373.64C333.7 372.284 333.972 370.936 334.2 369.532C334.348 368.612 334.46 367.656 334.592 366.716C334.772 365.42 334.956 364.132 335.1 362.796C335.208 361.792 335.284 360.76 335.372 359.736C335.46 358.72 335.576 357.728 335.64 356.696C338.288 357.864 341.012 358.94 343.868 359.94C355.224 363.928 370.072 365.108 385.788 366.36C408.316 368.156 431.608 370.012 440.316 380.6C443.352 384.272 444.492 388.928 443.812 394.832V394.832Z" fill="#110D1C" fill-opacity="0.83"/>
<path d="M100.56 342.128L78.28 380.196C78.212 380.312 78.152 380.436 78.092 380.556C74.54 388.34 77.492 392.868 78.924 394.452C81.768 397.592 86.564 398.608 91.16 397.056C102.048 393.34 106.1 397.38 108.436 401.304C113.244 409.4 117.152 412.98 121.488 413.284C121.696 413.296 121.9 413.304 122.096 413.304C126.932 413.304 130.196 409.22 133.96 404.528C136.368 401.52 139.092 398.112 142.588 395.236C145.632 392.736 146.996 392.9 150.716 396.264C154.328 399.516 159.476 400.12 162.976 397.7C165.296 396.092 168.628 391.98 164.768 382.24L145.528 343.212C144.052 339.932 141.784 337.604 139.336 336.652V319.928C139.336 317.72 137.548 315.928 135.336 315.928C133.124 315.928 131.336 317.72 131.336 319.928V336.608L109.38 338.436L107.848 332.012C106.592 326.744 106.764 321.22 108.344 316.04L111.04 307.188C111.68 305.076 110.488 302.84 108.376 302.196C106.26 301.544 104.028 302.748 103.384 304.86L100.692 313.708C98.696 320.244 98.48 327.216 100.068 333.868L101.692 340.684C101.308 341.06 100.96 341.488 100.652 341.964C100.628 342.02 100.592 342.076 100.56 342.128V342.128ZM157.464 385.484C158.948 389.248 158.568 390.92 158.428 391.128C158.164 391.276 157 391.164 156.076 390.332C151.612 386.3 145.464 382.516 137.508 389.064C133.368 392.472 130.232 396.388 127.712 399.536C125.964 401.716 123.024 405.312 122.04 405.312C121.956 405.308 119.976 405.08 115.308 397.228C112.476 392.46 107.46 387.616 98.776 387.616C95.824 387.616 92.44 388.176 88.576 389.492C87.084 390.004 85.516 389.832 84.852 389.096C84.104 388.272 84.276 386.352 85.288 384.064L107.176 346.664L136.62 344.212C136.952 344.476 137.636 345.192 138.288 346.636L157.464 385.484Z" fill="#110D1C" fill-opacity="0.83"/>
<path d="M274.004 338.444L252.048 336.616V319.936C252.048 317.728 250.26 315.936 248.048 315.936C245.836 315.936 244.048 317.728 244.048 319.936V336.656C241.58 337.596 239.356 339.892 237.924 343.092L218.492 382.548C214.76 391.988 218.096 396.1 220.416 397.708C223.908 400.136 229.068 399.528 232.672 396.268C236.392 392.916 237.76 392.736 240.8 395.24C244.296 398.116 247.028 401.524 249.436 404.532C253.192 409.228 256.46 413.308 261.292 413.308C261.496 413.308 261.7 413.3 261.904 413.288C266.24 412.984 270.144 409.404 274.952 401.308C277.284 397.384 281.348 393.348 292.232 397.06C296.82 398.62 301.624 397.6 304.464 394.456C305.896 392.872 308.848 388.348 305.296 380.56C305.236 380.436 305.176 380.316 305.108 380.2L282.828 342.132C282.796 342.084 282.764 342.032 282.736 341.984C282.428 341.504 282.076 341.076 281.692 340.692L284.72 327.988C285.36 325.312 285.436 322.58 284.944 319.872L282.304 305.316C281.908 303.144 279.852 301.68 277.652 302.096C275.48 302.492 274.04 304.572 274.428 306.748L277.072 321.308C277.364 322.92 277.32 324.54 276.94 326.132L274.004 338.444ZM298.096 384.052C299.112 386.344 299.28 388.264 298.532 389.084C297.868 389.824 296.304 389.988 294.812 389.48C279.6 384.304 271.876 390.824 268.076 397.216C263.408 405.072 261.432 405.296 261.348 405.3C261.336 405.3 261.328 405.3 261.32 405.3C260.3 405.3 257.408 401.692 255.676 399.528C253.156 396.38 250.02 392.46 245.88 389.056C242.764 386.488 239.924 385.512 237.352 385.512C233.364 385.512 230.024 387.872 227.308 390.324C226.38 391.16 225.224 391.26 225 391.156C224.816 390.916 224.436 389.244 225.788 385.78L245.152 346.492C245.752 345.152 246.428 344.46 246.756 344.2L276.2 346.652L298.096 384.052Z" fill="#110D1C" fill-opacity="0.83"/>
<path d="M141.228 141.572C148.695 141.572 154.748 135.519 154.748 128.052C154.748 120.585 148.695 114.532 141.228 114.532C133.761 114.532 127.708 120.585 127.708 128.052C127.708 135.519 133.761 141.572 141.228 141.572Z" fill="#110D1C" fill-opacity="0.83"/>
<path d="M244.568 141.572C252.035 141.572 258.088 135.519 258.088 128.052C258.088 120.585 252.035 114.532 244.568 114.532C237.101 114.532 231.048 120.585 231.048 128.052C231.048 135.519 237.101 141.572 244.568 141.572Z" fill="#110D1C" fill-opacity="0.83"/>
<path d="M253.9 233.356C256.828 231.1 259.828 228.772 262.968 226.316C264.712 224.956 265.016 222.44 263.652 220.7C262.288 218.96 259.772 218.652 258.04 220.02C256.612 221.14 255.284 222.16 253.904 223.236V233.356H253.9Z" fill="#110D1C" fill-opacity="0.83"/>
<path d="M173.476 273.796C168.876 273.796 165.152 277.524 165.152 282.12C165.152 286.716 168.88 290.444 173.476 290.444C178.076 290.444 181.8 286.716 181.8 282.12C181.8 277.524 178.076 273.796 173.476 273.796Z" fill="#21331E"/>
<path d="M211.344 273.796C206.744 273.796 203.02 277.524 203.02 282.12C203.02 286.716 206.748 290.444 211.344 290.444C215.944 290.444 219.668 286.716 219.668 282.12C219.668 277.524 215.944 273.796 211.344 273.796Z" fill="#21331E"/>
</svg>
